<?xml version="1.0" standalone="no"?><!DOCTYPE svg PUBLIC "-//W3C//DTD SVG 1.1//EN" "http://www.w3.org/Graphics/SVG/1.1/DTD/svg11.dtd"><svg t="1678375232258" class="icon" viewBox="0 0 1024 1024" version="1.1" xmlns="http://www.w3.org/2000/svg" p-id="4160" xmlns:xlink="http://www.w3.org/1999/xlink" width="48" height="48"><path d="M975.348 293.936a161.772 161.772 0 0 0-5.032-10.362c-0.25-0.502-0.48-1.008-0.732-1.508a19.568 19.568 0 0 0-1.342-2.244c-27.968-49.404-80.98-82.84-141.688-82.84-89.732 0-162.732 73-162.732 162.732s73 162.732 162.732 162.732c66.78 0 124.268-40.446 149.32-98.118A475.83 475.83 0 0 1 983.97 512c0 260.248-211.724 471.968-471.97 471.968S40.03 772.248 40.03 512 251.752 40.03 512 40.03c82.144 0 163.024 21.418 233.898 61.938 9.596 5.492 21.824 2.156 27.308-7.44 5.486-9.596 2.156-21.824-7.44-27.308C688.852 23.244 601.1 0 512 0 229.68 0 0 229.68 0 512c0 282.316 229.68 512 512 512s512-229.68 512-511.998c0-76.416-16.374-149.704-48.652-218.066z m-148.796 188.48c-67.66 0-122.704-55.046-122.704-122.704s55.044-122.704 122.704-122.704c46.476 0 86.998 25.974 107.816 64.168 1.674 3.344 3.302 6.7 4.888 10.072a121.906 121.906 0 0 1 10 48.464c-0.002 67.66-55.044 122.704-122.704 122.704z" fill="" p-id="4161"></path><path d="M426.326 228.546c-72.326 0-131.166 58.84-131.166 131.166s58.84 131.166 131.166 131.166 131.166-58.838 131.166-131.166-58.84-131.166-131.166-131.166z m0 222.302c-50.252 0-91.136-40.884-91.136-91.136s40.884-91.136 91.136-91.136c50.252 0 91.136 40.884 91.136 91.136s-40.882 91.136-91.136 91.136z" fill="" p-id="4162"></path><path d="M445.02 359.704m-20.014 0a20.014 20.014 0 1 0 40.028 0 20.014 20.014 0 1 0-40.028 0Z" fill="" p-id="4163"></path><path d="M856.468 359.704m-20.014 0a20.014 20.014 0 1 0 40.028 0 20.014 20.014 0 1 0-40.028 0Z" fill="" p-id="4164"></path><path d="M622.278 617.2c-95.236 0-172.716 77.478-172.716 172.716v46.444c0 11.056 8.962 20.014 20.014 20.014H774.98c11.054 0 20.014-8.958 20.014-20.014v-46.444c0-95.238-77.48-172.716-172.716-172.716z m132.688 199.146H489.592v-26.43c0-73.162 59.524-132.686 132.686-132.686s132.686 59.524 132.686 132.686v26.43z" fill="" p-id="4165"></path><path d="M816.44 125.182m-20.014 0a20.014 20.014 0 1 0 40.028 0 20.014 20.014 0 1 0-40.028 0Z" fill="" p-id="4166"></path></svg>