<?xml version="1.0" standalone="no"?><!DOCTYPE svg PUBLIC "-//W3C//DTD SVG 1.1//EN" "http://www.w3.org/Graphics/SVG/1.1/DTD/svg11.dtd"><svg t="1678375039403" class="icon" viewBox="0 0 1024 1024" version="1.1" xmlns="http://www.w3.org/2000/svg" p-id="2863" width="48" height="48" xmlns:xlink="http://www.w3.org/1999/xlink"><path d="M512 0C229.233778 0 0 229.233778 0 512s229.233778 512 512 512 512-229.233778 512-512A512 512 0 0 0 512 0z m0 938.666667C276.366222 938.666667 85.333333 747.633778 85.333333 512 85.333333 276.366222 276.366222 85.333333 512 85.333333c235.633778 0 426.666667 191.032889 426.666667 426.666667a426.666667 426.666667 0 0 1-426.666667 426.666667z m234.666667-469.333334a42.666667 42.666667 0 0 0-42.666667 42.666667 192 192 0 1 1-384 0 42.666667 42.666667 0 0 0-85.333333 0c0 153.173333 124.16 277.333333 277.333333 277.333333s277.333333-124.16 277.333333-277.333333a42.666667 42.666667 0 0 0-42.666666-42.666667z m-117.333334-91.306666a50.346667 50.346667 0 1 0 0-100.693334 50.346667 50.346667 0 0 0 0 100.693334z m-234.666666 0a50.346667 50.346667 0 1 0 0-100.693334 50.346667 50.346667 0 0 0 0 100.693334z" fill="#d81e06" p-id="2864"></path></svg>