<?xml version="1.0" standalone="no"?><!DOCTYPE svg PUBLIC "-//W3C//DTD SVG 1.1//EN" "http://www.w3.org/Graphics/SVG/1.1/DTD/svg11.dtd"><svg t="1678375165234" class="icon" viewBox="0 0 1024 1024" version="1.1" xmlns="http://www.w3.org/2000/svg" p-id="3464" xmlns:xlink="http://www.w3.org/1999/xlink" width="48" height="48"><path d="M417.834667 499.498667a21.333333 21.333333 0 0 1-30.165334 0l-55.168-55.168a21.333333 21.333333 0 0 1 0-30.165334l15.061334-15.061333a21.333333 21.333333 0 0 1 30.208 0l55.125333 55.125333a21.333333 21.333333 0 0 1 0 30.208l-15.061333 15.061334zM688.896 414.165333a21.333333 21.333333 0 0 1 0 30.165334l-55.168 55.168a21.333333 21.333333 0 0 1-30.165333 0l-15.061334-15.061334a21.333333 21.333333 0 0 1 0-30.208l55.168-55.125333a21.333333 21.333333 0 0 1 30.165334 0l15.061333 15.061333zM603.392 670.293333a24.32 24.32 0 0 0 20.352 12.373334h26.026667c13.952 0 24.149333-13.226667 18.517333-25.984a170.709333 170.709333 0 0 0-312.576 0c-5.632 12.8 4.565333 25.984 18.517333 25.984h26.026667a24.32 24.32 0 0 0 20.352-12.373334 106.624 106.624 0 0 1 182.784 0z" fill="#d81e06" p-id="3465"></path><path d="M512 853.333333a341.333333 341.333333 0 1 0 0-682.666666 341.333333 341.333333 0 0 0 0 682.666666z m0-64a277.333333 277.333333 0 1 1 0-554.666666 277.333333 277.333333 0 0 1 0 554.666666z" fill="#d81e06" p-id="3466"></path></svg>