<?xml version="1.0" standalone="no"?>
<!DOCTYPE svg PUBLIC "-//W3C//DTD SVG 1.1//EN" "http://www.w3.org/Graphics/SVG/1.1/DTD/svg11.dtd">
<svg t="1678375197300" class="icon" viewBox="0 0 1024 1024" version="1.1"
    xmlns="http://www.w3.org/2000/svg" p-id="3824" xmlns:xlink="http://www.w3.org/1999/xlink"
    width="48" height="48">
    <path
        d="M512 85.333333c235.648 0 426.666667 191.018667 426.666667 426.666667 0 31.018667-3.285333 61.226667-9.6 90.368l-76.032-76.074667a341.333333 341.333333 0 1 0-186.666667 290.176 170.581333 170.581333 0 0 0 66.346667 60.714667A424.789333 424.789333 0 0 1 512 938.666667C276.352 938.666667 85.333333 747.648 85.333333 512S276.352 85.333333 512 85.333333z m298.666667 519.338667l60.330666 60.330667a85.333333 85.333333 0 1 1-125.013333 4.693333l4.352-4.693333L810.666667 604.672zM512 640c62.549333 0 118.826667 26.922667 157.866667 69.845333l-40.32 36.693334C595.84 733.098667 555.434667 725.333333 512 725.333333c-43.434667 0-83.84 7.808-117.546667 21.162667l-40.32-36.693333A212.693333 212.693333 0 0 1 512 640z m-149.333333-213.333333a64 64 0 1 1 0 128 64 64 0 0 1 0-128z m298.666666 0a64 64 0 1 1 0 128 64 64 0 0 1 0-128z"
        p-id="3825"></path>
</svg>