<?xml version="1.0" standalone="no"?>
<!DOCTYPE svg PUBLIC "-//W3C//DTD SVG 1.1//EN" "http://www.w3.org/Graphics/SVG/1.1/DTD/svg11.dtd">
<svg t="1678375277730" class="icon" viewBox="0 0 1024 1024" version="1.1"
    xmlns="http://www.w3.org/2000/svg" p-id="4851" xmlns:xlink="http://www.w3.org/1999/xlink"
    width="48" height="48">
    <path d="M511.3 523.1m-459.2 0a459.2 459.2 0 1 0 918.4 0 459.2 459.2 0 1 0-918.4 0Z"
        fill="#75EAE4" p-id="4852"></path>
    <path
        d="M511.3 1002.2c-64.7 0-127.4-12.7-186.5-37.7-57.1-24.1-108.3-58.7-152.3-102.7S94 766.6 69.8 709.6c-25-59.1-37.7-121.8-37.7-186.5s12.7-127.4 37.7-186.5c24.1-57.1 58.7-108.3 102.7-152.3s95.2-78.5 152.3-102.7c59.1-25 121.8-37.7 186.5-37.7s127.4 12.7 186.5 37.7c57.1 24.1 108.3 58.7 152.3 102.7s78.5 95.2 102.7 152.3c25 59.1 37.7 121.8 37.7 186.5s-12.7 127.4-37.7 186.5c-24.1 57.1-58.7 108.3-102.7 152.3s-95.2 78.5-152.3 102.7c-59 25-121.8 37.6-186.5 37.6z m0-918.3c-59.3 0-116.8 11.6-170.9 34.5-52.3 22.1-99.3 53.8-139.6 94.1s-72 87.3-94.1 139.6C83.8 406.2 72.2 463.7 72.2 523c0 59.3 11.6 116.8 34.5 170.9 22.1 52.3 53.8 99.3 94.1 139.6s87.3 72 139.6 94.1c54.1 22.9 111.6 34.5 170.9 34.5s116.8-11.6 170.9-34.5c52.3-22.1 99.3-53.8 139.6-94.1s72-87.3 94.1-139.6c22.9-54.1 34.5-111.6 34.5-170.9 0-59.3-11.6-116.8-34.5-170.9-22.1-52.3-53.8-99.3-94.1-139.6s-87.3-72-139.6-94.1c-54.1-22.9-111.6-34.5-170.9-34.5z"
        fill="#05C4CE" p-id="4853"></path>
    <path d="M71.8 496.5a439.5 432.7 0 1 0 879 0 439.5 432.7 0 1 0-879 0Z" fill="#FFFFFF"
        p-id="4854"></path>
    <path d="M361.9 218.7a33.1 50.6 0 1 0 66.2 0 33.1 50.6 0 1 0-66.2 0Z" fill="#05C4CE" p-id="4855"></path>
    <path d="M594.5 218.7a33.1 50.6 0 1 0 66.2 0 33.1 50.6 0 1 0-66.2 0Z" fill="#05C4CE" p-id="4856"></path>
    <path d="M446 341.7a67 76.7 0 1 0 134 0 67 76.7 0 1 0-134 0Z" fill="#05C4CE" p-id="4857"></path>
    <path
        d="M188.748823 349.141117a28.9 60.8 87.699 1 0 121.501954-4.882146 28.9 60.8 87.699 1 0-121.501954 4.882146Z"
        fill="#75EAE4" p-id="4858"></path>
    <path
        d="M712.450441 328.139679a28.9 60.8 87.699 1 0 121.501954-4.882146 28.9 60.8 87.699 1 0-121.501954 4.882146Z"
        fill="#75EAE4" p-id="4859"></path>
    <path
        d="M511.3 1002.2c-64.7 0-127.4-12.7-186.5-37.7-57.1-24.1-108.3-58.7-152.3-102.7S94 766.6 69.8 709.6c-25-59.1-37.7-121.8-37.7-186.5s12.7-127.4 37.7-186.5c24.1-57.1 58.7-108.3 102.7-152.3s95.2-78.5 152.3-102.7c59.1-25 121.8-37.7 186.5-37.7s127.4 12.7 186.5 37.7c57.1 24.1 108.3 58.7 152.3 102.7s78.5 95.2 102.7 152.3c25 59.1 37.7 121.8 37.7 186.5s-12.7 127.4-37.7 186.5c-24.1 57.1-58.7 108.3-102.7 152.3s-95.2 78.5-152.3 102.7c-59 25-121.8 37.6-186.5 37.6z m0-918.3c-59.3 0-116.8 11.6-170.9 34.5-52.3 22.1-99.3 53.8-139.6 94.1s-72 87.3-94.1 139.6C83.8 406.2 72.2 463.7 72.2 523c0 59.3 11.6 116.8 34.5 170.9 22.1 52.3 53.8 99.3 94.1 139.6s87.3 72 139.6 94.1c54.1 22.9 111.6 34.5 170.9 34.5s116.8-11.6 170.9-34.5c52.3-22.1 99.3-53.8 139.6-94.1s72-87.3 94.1-139.6c22.9-54.1 34.5-111.6 34.5-170.9 0-59.3-11.6-116.8-34.5-170.9-22.1-52.3-53.8-99.3-94.1-139.6s-87.3-72-139.6-94.1c-54.1-22.9-111.6-34.5-170.9-34.5z"
        fill="#05C4CE" p-id="4860"></path>
    <path
        d="M513 363.3c-21.9 0-40.6 12.7-48.8 30.8 12.2 14.9 29.5 24.2 48.8 24.2 19.2 0 36.6-9.3 48.8-24.2-8.2-18.1-26.9-30.8-48.8-30.8z"
        fill="#75EAE4" p-id="4861"></path>
</svg>